<svg height="40px" viewBox="0 0 40 40" width="40px" xmlns="http://www.w3.org/2000/svg"><path d="m176.164062 248.226562c-20.167968-11.8125-46.578124-9.078124-63.863281 8.195313-20.382812 20.371094-20.765625 53.710937 0 74.464844l53.257813 53.246093c2.929687 2.929688 6.769531 4.394532 10.605468 4.394532 3.839844 0 7.675782-1.464844 10.605469-4.394532l53.261719-53.246093c20.378906-20.367188 20.761719-53.710938 0-74.464844-17.285156-17.273437-43.695312-20.007813-63.867188-8.195313zm42.65625 61.445313-42.65625 42.644531-42.652343-42.648437s0 0-.003907 0c-8.761718-8.757813-8.925781-23.105469 0-32.027344 8.832032-8.828125 23.210938-8.839844 32.054688 0 5.855469 5.855469 15.351562 5.855469 21.207031 0 8.835938-8.832031 23.214844-8.832031 32.054688 0 8.761719 8.757813 8.925781 23.105469-.003907 32.03125zm0 0"/><path d="m336.832031 96.410156h-49.265625v-81.398437c0-10.464844-10.472656-17.71875-20.265625-14.042969l-257.066406 96.398438c-5.605469 2.097656-9.734375 7.558593-9.734375 14.042968v385.589844c0 8.285156 6.714844 15 15 15h321.332031c8.285157 0 15-6.714844 15-15v-385.589844c0-8.28125-6.714843-15-15-15zm-79.265625 0h-159.347656l159.347656-59.753906zm64.265625 385.589844h-291.332031v-355.589844h291.332031zm0 0"/></svg>